<?xml version="1.0" standalone="no"?>
<!DOCTYPE svg PUBLIC "-//W3C//DTD SVG 20010904//EN"
 "http://www.w3.org/TR/2001/REC-SVG-20010904/DTD/svg10.dtd">
<svg version="1.0" xmlns="http://www.w3.org/2000/svg"
 width="160.000000pt" height="52.000000pt" viewBox="0 0 160.000000 52.000000"
 preserveAspectRatio="xMidYMid meet">

<g transform="translate(0.000000,52.000000) scale(0.100000,-0.100000)"
fill="#000000" stroke="none">
<path d="M791 464 c-43 -36 -68 -91 -60 -129 l7 -30 1 35 c1 44 32 95 72 119
17 10 26 22 21 25 -6 3 -24 -6 -41 -20z"/>
<path d="M664 446 c-3 -14 -4 -33 -1 -43 3 -12 5 -9 6 9 0 15 6 30 11 33 13 8
13 25 0 25 -5 0 -12 -11 -16 -24z"/>
<path d="M851 427 c-1 -23 -31 -81 -81 -158 -22 -34 -40 -69 -40 -78 0 -8 21
18 46 59 67 109 86 149 81 173 -3 16 -5 17 -6 4z"/>
<path d="M964 421 c-17 -10 -34 -28 -37 -40 -4 -18 -1 -16 23 9 20 21 37 30
60 30 18 0 29 4 25 10 -9 15 -37 12 -71 -9z"/>
<path d="M130 410 c-8 -14 -8 -26 0 -41 7 -11 14 -18 17 -15 3 3 0 12 -6 20
-10 12 -9 17 8 28 24 15 27 28 6 28 -8 0 -19 -9 -25 -20z"/>
<path d="M177 386 c-4 -10 -7 -32 -6 -49 1 -31 1 -31 10 7 10 43 7 72 -4 42z"/>
<path d="M261 365 c-6 -19 -25 -45 -42 -59 -16 -14 -25 -27 -19 -31 15 -9 73
56 82 93 10 36 -7 34 -21 -3z"/>
<path d="M1037 383 c3 -7 9 -13 14 -13 5 0 9 6 9 13 0 8 -6 14 -14 14 -8 0
-12 -6 -9 -14z"/>
<path d="M950 305 c0 -2 23 -16 50 -30 28 -14 50 -23 50 -20 0 2 -22 16 -50
30 -27 14 -50 23 -50 20z"/>
<path d="M352 230 c0 -19 2 -27 5 -17 2 9 2 25 0 35 -3 9 -5 1 -5 -18z"/>
<path d="M412 221 c3 -39 0 -47 -22 -57 -21 -11 -22 -14 -7 -20 9 -3 24 -1 32
6 17 14 20 77 5 100 -7 11 -10 3 -8 -29z"/>
<path d="M503 246 c-7 -9 -8 -25 -3 -47 l8 -34 1 33 c1 19 7 35 16 38 8 4 15
10 15 15 0 13 -23 10 -37 -5z"/>
<path d="M562 240 c-6 -11 -12 -34 -11 -52 l1 -33 8 35 c5 19 18 43 30 52 20
16 21 18 4 18 -11 0 -25 -9 -32 -20z"/>
<path d="M1387 225 c-4 -22 -6 -71 -5 -110 l1 -70 11 88 c12 95 25 114 69 102
20 -5 20 -5 4 6 -11 6 -29 9 -43 6 -13 -2 -25 1 -27 7 -2 6 -7 -7 -10 -29z"/>
<path d="M1136 234 c-9 -8 -16 -25 -15 -37 l0 -22 9 21 c11 27 32 43 23 17 -5
-15 -3 -16 8 -5 7 6 22 12 33 12 20 0 20 0 0 15 -25 19 -39 19 -58 -1z"/>
<path d="M1288 233 c-21 -24 -30 -56 -22 -77 14 -37 51 -5 56 49 3 43 -11 54
-34 28z m32 -8 c0 -15 -32 -65 -41 -65 -11 0 -3 37 13 58 11 12 28 17 28 7z"/>
<path d="M282 196 c-10 -27 -23 -42 -48 -52 -53 -22 -74 -19 -75 14 -2 23 -2
24 -6 5 -2 -13 -9 -23 -14 -23 -6 0 -7 -4 -4 -10 9 -14 85 -12 115 3 28 14 53
58 48 84 -2 9 -9 0 -16 -21z"/>
<path d="M618 194 c-2 -19 0 -37 4 -40 4 -3 8 13 8 35 0 51 -6 53 -12 5z"/>
<path d="M112 196 c-15 -33 -2 -42 15 -10 15 31 16 34 5 34 -5 0 -14 -11 -20
-24z"/>
<path d="M1061 207 c-1 -23 -54 -77 -74 -77 -9 0 -18 8 -20 18 -4 16 -5 16 -6
0 0 -10 -9 -18 -18 -19 -11 0 -13 -3 -6 -6 8 -3 11 -15 8 -31 -5 -25 -5 -25 6
-6 6 12 28 26 48 33 40 12 79 64 68 92 -4 10 -6 9 -6 -4z"/>
<path d="M1467 184 c-16 -14 -22 -24 -14 -24 15 0 53 37 46 44 -2 2 -17 -7
-32 -20z"/>
<path d="M913 185 c-8 -23 0 -24 20 -3 14 15 15 18 2 18 -9 0 -18 -7 -22 -15z"/>
<path d="M1212 170 c-8 -13 -23 -20 -44 -20 -23 0 -29 -3 -21 -11 17 -17 71
-1 78 22 9 28 2 32 -13 9z"/>
<path d="M713 123 c-15 -5 -18 -33 -4 -33 13 0 33 28 24 33 -4 2 -14 2 -20 0z"/>
<path d="M726 84 c-17 -12 -17 -14 -4 -14 9 0 20 5 23 11 11 17 2 18 -19 3z"/>
</g>
</svg>
